<svg width="330" height="77" viewBox="0 0 330 77" fill="none" xmlns="http://www.w3.org/2000/svg">
<path d="M12.8519 27.5785H7.4492V6.59501H0.530228V2.09855H19.7709V6.59501H12.8519V27.5785ZM34.1491 7.72784C34.8695 7.72784 35.4678 7.78012 35.9442 7.88469L35.5434 12.8691C35.1135 12.753 34.5906 12.6949 33.9748 12.6949C32.2785 12.6949 30.954 13.1306 30.0012 14.002C29.0601 14.8734 28.5895 16.0933 28.5895 17.6619V27.5785H23.274V8.09383H27.2999L28.0841 11.3703H28.3455C28.9497 10.2782 29.763 9.40094 30.7855 8.73867C31.8195 8.06478 32.9408 7.72784 34.1491 7.72784ZM53.2852 27.5785L52.5707 25.0863H52.2918C51.7225 25.9925 50.915 26.6955 49.8693 27.1951C48.8236 27.6831 47.6327 27.9271 46.2965 27.9271C44.0076 27.9271 42.2822 27.3171 41.1204 26.0971C39.9585 24.8655 39.3776 23.0995 39.3776 20.7989V8.09383H44.6931V19.4744C44.6931 20.8803 44.9429 21.9376 45.4425 22.6463C45.9422 23.3435 46.738 23.692 47.8302 23.692C49.3174 23.692 50.3921 23.1982 51.0544 22.2106C51.7167 21.2114 52.0478 19.5615 52.0478 17.261V8.09383H57.3634V27.5785H53.2852ZM76.5344 21.7923C76.5344 23.7908 75.8372 25.3128 74.443 26.3585C73.0603 27.4042 70.9864 27.9271 68.2211 27.9271C66.8036 27.9271 65.5953 27.8283 64.5961 27.6308C63.5969 27.4449 62.6616 27.166 61.7901 26.7942V22.4023C62.7777 22.8671 63.8873 23.2563 65.1189 23.57C66.3621 23.8837 67.4543 24.0406 68.3954 24.0406C70.3241 24.0406 71.2885 23.4829 71.2885 22.3675C71.2885 21.9492 71.1607 21.6123 70.9051 21.3566C70.6495 21.0894 70.2079 20.7931 69.5805 20.4678C68.9531 20.1309 68.1166 19.7416 67.0709 19.3001C65.5721 18.6727 64.4683 18.0918 63.7595 17.5573C63.0624 17.0228 62.5512 16.4129 62.2259 15.7274C61.9121 15.0302 61.7553 14.1763 61.7553 13.1654C61.7553 11.4342 62.4234 10.0981 63.7595 9.15695C65.1073 8.20421 67.0128 7.72784 69.476 7.72784C71.8229 7.72784 74.106 8.23906 76.3252 9.26151L74.7218 13.0957C73.7459 12.6774 72.8338 12.3347 71.9856 12.0674C71.1374 11.8002 70.2718 11.6666 69.3888 11.6666C67.8203 11.6666 67.036 12.0907 67.036 12.9389C67.036 13.4152 67.2858 13.8277 67.7854 14.1763C68.2967 14.5248 69.4062 15.0418 71.1142 15.7274C72.6363 16.3431 73.7517 16.9183 74.4604 17.4527C75.1691 17.9872 75.692 18.603 76.0289 19.3001C76.3659 19.9972 76.5344 20.828 76.5344 21.7923ZM88.8909 23.692C89.8204 23.692 90.9358 23.4887 92.2371 23.082V27.0382C90.9126 27.6308 89.2859 27.9271 87.3572 27.9271C85.231 27.9271 83.6799 27.3926 82.7039 26.3237C81.7396 25.2431 81.2574 23.6281 81.2574 21.4786V12.0849H78.7129V9.83664L81.6408 8.05897L83.1745 3.94593H86.573V8.09383H92.028V12.0849H86.573V21.4786C86.573 22.2339 86.7821 22.7916 87.2004 23.1517C87.6303 23.5119 88.1938 23.692 88.8909 23.692ZM104.263 11.5097C103.136 11.5097 102.252 11.8699 101.613 12.5903C100.974 13.299 100.608 14.3099 100.515 15.6228H107.975C107.951 14.3099 107.609 13.299 106.946 12.5903C106.284 11.8699 105.39 11.5097 104.263 11.5097ZM105.012 27.9271C101.875 27.9271 99.4233 27.0615 97.6573 25.3303C95.8912 23.5991 95.0082 21.1475 95.0082 17.9756C95.0082 14.7107 95.8215 12.1894 97.4481 10.4118C99.0864 8.62248 101.346 7.72784 104.228 7.72784C106.981 7.72784 109.125 8.5121 110.659 10.0806C112.192 11.6492 112.959 13.8161 112.959 16.5813V19.1607H100.393C100.452 20.6711 100.899 21.8504 101.735 22.6986C102.572 23.5468 103.745 23.9709 105.256 23.9709C106.429 23.9709 107.539 23.8489 108.585 23.6049C109.63 23.3609 110.723 22.9717 111.861 22.4372V26.5502C110.932 27.015 109.938 27.3577 108.881 27.5785C107.824 27.8109 106.534 27.9271 105.012 27.9271ZM123.451 27.9271C121.162 27.9271 119.361 27.0382 118.048 25.2605C116.747 23.4829 116.096 21.0197 116.096 17.871C116.096 14.6759 116.759 12.1894 118.083 10.4118C119.419 8.62248 121.255 7.72784 123.59 7.72784C126.042 7.72784 127.913 8.68058 129.202 10.5861H129.376C129.109 9.13371 128.976 7.83822 128.976 6.69958V0.460304H134.309V27.5785H130.23L129.202 25.0514H128.976C127.767 26.9685 125.926 27.9271 123.451 27.9271ZM125.316 23.692C126.675 23.692 127.669 23.297 128.296 22.5069C128.935 21.7168 129.284 20.3749 129.342 18.481V17.9059C129.342 15.8145 129.016 14.3157 128.366 13.4094C127.727 12.5031 126.681 12.05 125.229 12.05C124.043 12.05 123.12 12.5554 122.458 13.5663C121.807 14.5655 121.482 16.0236 121.482 17.9407C121.482 19.8578 121.813 21.2986 122.475 22.2629C123.137 23.2156 124.084 23.692 125.316 23.692ZM159.98 7.72784C162.281 7.72784 164.082 8.62829 165.383 10.4292C166.684 12.2185 167.335 14.6759 167.335 17.8013C167.335 21.0197 166.661 23.5119 165.313 25.278C163.977 27.044 162.153 27.9271 159.841 27.9271C157.552 27.9271 155.757 27.0963 154.456 25.4348H154.09L153.201 27.5785H149.14V0.460304H154.456V6.76929C154.456 7.57099 154.386 8.85486 154.246 10.6209H154.456C155.699 8.6922 157.54 7.72784 159.98 7.72784ZM158.272 11.9803C156.959 11.9803 156.001 12.387 155.397 13.2003C154.793 14.002 154.479 15.3323 154.456 17.1913V17.7664C154.456 19.8578 154.763 21.3566 155.379 22.2629C156.007 23.1692 156.994 23.6223 158.342 23.6223C159.434 23.6223 160.3 23.1227 160.939 22.1235C161.589 21.1127 161.915 19.6487 161.915 17.7316C161.915 15.8145 161.589 14.3796 160.939 13.4268C160.288 12.4625 159.399 11.9803 158.272 11.9803ZM168.938 8.09383H174.759L178.437 19.0561C178.75 20.0089 178.965 21.1359 179.082 22.4372H179.186C179.314 21.2405 179.564 20.1134 179.936 19.0561L183.543 8.09383H189.242L180.999 30.0707C180.243 32.104 179.163 33.6261 177.757 34.6369C176.363 35.6477 174.73 36.1531 172.86 36.1531C171.942 36.1531 171.041 36.0544 170.158 35.8569V31.6392C170.797 31.7903 171.494 31.8658 172.25 31.8658C173.191 31.8658 174.01 31.5753 174.707 30.9944C175.416 30.4251 175.968 29.5595 176.363 28.3976L176.676 27.4391L168.938 8.09383ZM216.779 7.79755C216.779 9.38932 216.296 10.7429 215.332 11.8583C214.368 12.9737 213.014 13.7405 211.271 14.1588V14.2634C213.328 14.519 214.885 15.1464 215.942 16.1456C216.999 17.1332 217.528 18.4694 217.528 20.1541C217.528 22.6057 216.639 24.5169 214.862 25.888C213.084 27.2474 210.545 27.9271 207.245 27.9271C204.48 27.9271 202.029 27.4681 199.891 26.5502V21.9666C200.878 22.4662 201.965 22.8729 203.15 23.1866C204.335 23.5003 205.508 23.6572 206.67 23.6572C208.448 23.6572 209.761 23.3551 210.609 22.7509C211.457 22.1467 211.881 21.1766 211.881 19.8404C211.881 18.6437 211.393 17.7955 210.417 17.2959C209.441 16.7963 207.884 16.5465 205.747 16.5465H203.812V12.416H205.781C207.757 12.416 209.197 12.1604 210.104 11.6492C211.022 11.1263 211.48 10.2375 211.48 8.98266C211.48 7.05395 210.272 6.08959 207.855 6.08959C207.019 6.08959 206.165 6.22902 205.293 6.50787C204.434 6.78672 203.475 7.2689 202.418 7.9544L199.926 4.24221C202.249 2.56911 205.02 1.73256 208.239 1.73256C210.876 1.73256 212.956 2.26702 214.478 3.33595C216.012 4.40487 216.779 5.89207 216.779 7.79755ZM238.024 14.8385C238.024 19.2885 237.292 22.5824 235.828 24.7203C234.375 26.8581 232.133 27.9271 229.1 27.9271C226.161 27.9271 223.942 26.8233 222.443 24.6157C220.956 22.4081 220.212 19.1491 220.212 14.8385C220.212 10.3421 220.938 7.03071 222.39 4.90448C223.843 2.76663 226.079 1.6977 229.1 1.6977C232.04 1.6977 234.259 2.8131 235.758 5.0439C237.268 7.27471 238.024 10.5396 238.024 14.8385ZM225.562 14.8385C225.562 17.964 225.83 20.2064 226.364 21.5658C226.91 22.9136 227.822 23.5874 229.1 23.5874C230.355 23.5874 231.261 22.9019 231.819 21.5309C232.377 20.1599 232.656 17.9291 232.656 14.8385C232.656 11.7131 232.371 9.47065 231.802 8.11126C231.244 6.74024 230.344 6.05474 229.1 6.05474C227.834 6.05474 226.928 6.74024 226.382 8.11126C225.835 9.47065 225.562 11.7131 225.562 14.8385ZM247.313 23.8314C246.709 26.1784 245.686 28.9611 244.245 32.1795H240.411C241.166 29.0889 241.753 26.1726 242.171 23.4306H247.051L247.313 23.8314ZM268.767 14.8385C268.767 19.2885 268.035 22.5824 266.571 24.7203C265.118 26.8581 262.876 27.9271 259.844 27.9271C256.904 27.9271 254.685 26.8233 253.186 24.6157C251.699 22.4081 250.955 19.1491 250.955 14.8385C250.955 10.3421 251.681 7.03071 253.134 4.90448C254.586 2.76663 256.823 1.6977 259.844 1.6977C262.783 1.6977 265.002 2.8131 266.501 5.0439C268.012 7.27471 268.767 10.5396 268.767 14.8385ZM256.306 14.8385C256.306 17.964 256.573 20.2064 257.107 21.5658C257.653 22.9136 258.565 23.5874 259.844 23.5874C261.098 23.5874 262.005 22.9019 262.562 21.5309C263.12 20.1599 263.399 17.9291 263.399 14.8385C263.399 11.7131 263.114 9.47065 262.545 8.11126C261.987 6.74024 261.087 6.05474 259.844 6.05474C258.577 6.05474 257.671 6.74024 257.125 8.11126C256.579 9.47065 256.306 11.7131 256.306 14.8385ZM289.158 14.8385C289.158 19.2885 288.426 22.5824 286.962 24.7203C285.509 26.8581 283.267 27.9271 280.234 27.9271C277.295 27.9271 275.076 26.8233 273.577 24.6157C272.09 22.4081 271.346 19.1491 271.346 14.8385C271.346 10.3421 272.072 7.03071 273.525 4.90448C274.977 2.76663 277.214 1.6977 280.234 1.6977C283.174 1.6977 285.393 2.8131 286.892 5.0439C288.402 7.27471 289.158 10.5396 289.158 14.8385ZM276.697 14.8385C276.697 17.964 276.964 20.2064 277.498 21.5658C278.044 22.9136 278.956 23.5874 280.234 23.5874C281.489 23.5874 282.396 22.9019 282.953 21.5309C283.511 20.1599 283.79 17.9291 283.79 14.8385C283.79 11.7131 283.505 9.47065 282.936 8.11126C282.378 6.74024 281.478 6.05474 280.234 6.05474C278.968 6.05474 278.062 6.74024 277.516 8.11126C276.97 9.47065 276.697 11.7131 276.697 14.8385ZM309.549 14.8385C309.549 19.2885 308.817 22.5824 307.353 24.7203C305.9 26.8581 303.658 27.9271 300.625 27.9271C297.686 27.9271 295.467 26.8233 293.968 24.6157C292.481 22.4081 291.737 19.1491 291.737 14.8385C291.737 10.3421 292.463 7.03071 293.916 4.90448C295.368 2.76663 297.605 1.6977 300.625 1.6977C303.565 1.6977 305.784 2.8131 307.283 5.0439C308.793 7.27471 309.549 10.5396 309.549 14.8385ZM297.087 14.8385C297.087 17.964 297.355 20.2064 297.889 21.5658C298.435 22.9136 299.347 23.5874 300.625 23.5874C301.88 23.5874 302.786 22.9019 303.344 21.5309C303.902 20.1599 304.181 17.9291 304.181 14.8385C304.181 11.7131 303.896 9.47065 303.327 8.11126C302.769 6.74024 301.869 6.05474 300.625 6.05474C299.359 6.05474 298.453 6.74024 297.907 8.11126C297.361 9.47065 297.087 11.7131 297.087 14.8385ZM319.117 16.9125H312.372V13.0957H319.117V6.29873H322.933V13.0957H329.678V16.9125H322.933V23.6223H319.117V16.9125ZM16.1981 70.7923C16.1981 72.7908 15.501 74.3128 14.1067 75.3585C12.7241 76.4042 10.6502 76.9271 7.8849 76.9271C6.46741 76.9271 5.25906 76.8283 4.25985 76.6308C3.26064 76.4449 2.32533 76.166 1.45392 75.7942V71.4023C2.44151 71.8671 3.55111 72.2563 4.78269 72.57C6.0259 72.8837 7.11806 73.0406 8.05918 73.0406C9.9879 73.0406 10.9523 72.4829 10.9523 71.3675C10.9523 70.9492 10.8244 70.6123 10.5688 70.3566C10.3132 70.0894 9.87171 69.7931 9.2443 69.4678C8.61689 69.1309 7.78033 68.7416 6.73465 68.3001C5.23583 67.6727 4.13204 67.0918 3.4233 66.5573C2.72617 66.0228 2.21495 65.4129 1.88962 64.7274C1.57592 64.0302 1.41906 63.1763 1.41906 62.1654C1.41906 60.4342 2.08714 59.0981 3.4233 58.1569C4.77108 57.2042 6.67655 56.7278 9.13973 56.7278C11.4867 56.7278 13.7698 57.2391 15.989 58.2615L14.3856 62.0957C13.4096 61.6774 12.4976 61.3347 11.6494 61.0674C10.8012 60.8002 9.93561 60.6666 9.05259 60.6666C7.48406 60.6666 6.69979 61.0907 6.69979 61.9389C6.69979 62.4152 6.94959 62.8277 7.4492 63.1763C7.96043 63.5248 9.07002 64.0418 10.778 64.7274C12.3 65.3431 13.4154 65.9183 14.1242 66.4527C14.8329 66.9872 15.3558 67.603 15.6927 68.3001C16.0297 68.9972 16.1981 69.828 16.1981 70.7923ZM32.72 76.5785L31.6917 73.9294H31.5523C30.6577 75.0564 29.734 75.8407 28.7812 76.2822C27.8401 76.7121 26.6085 76.9271 25.0865 76.9271C23.2159 76.9271 21.7403 76.3926 20.6597 75.3237C19.5908 74.2547 19.0563 72.7327 19.0563 70.7575C19.0563 68.6894 19.7767 67.1673 21.2174 66.1913C22.6698 65.2037 24.8541 64.6576 27.7704 64.5531L31.1515 64.4485V63.5945C31.1515 61.6193 30.1406 60.6317 28.119 60.6317C26.5621 60.6317 24.7321 61.1023 22.6291 62.0434L20.8689 58.4532C23.1113 57.2797 25.5977 56.693 28.3281 56.693C30.9423 56.693 32.9466 57.2623 34.3408 58.4009C35.7351 59.5396 36.4322 61.2708 36.4322 63.5945V76.5785H32.72ZM31.1515 67.5507L29.095 67.6204C27.5497 67.6669 26.3994 67.9458 25.6442 68.457C24.889 68.9682 24.5114 69.7467 24.5114 70.7923C24.5114 72.2912 25.3711 73.0406 27.0907 73.0406C28.3223 73.0406 29.3041 72.6862 30.0361 71.9775C30.7797 71.2687 31.1515 70.3276 31.1515 69.1541V67.5507ZM50.1307 72.692C51.0602 72.692 52.1756 72.4887 53.4769 72.082V76.0382C52.1524 76.6308 50.5258 76.9271 48.597 76.9271C46.4708 76.9271 44.9197 76.3926 43.9437 75.3237C42.9794 74.2431 42.4972 72.6281 42.4972 70.4786V61.0849H39.9527V58.8366L42.8806 57.059L44.4143 52.9459H47.8128V57.0938H53.2678V61.0849H47.8128V70.4786C47.8128 71.2339 48.0219 71.7916 48.4402 72.1517C48.8701 72.5119 49.4336 72.692 50.1307 72.692ZM57.2065 52.0571C57.2065 50.3259 58.1709 49.4603 60.0996 49.4603C62.0283 49.4603 62.9927 50.3259 62.9927 52.0571C62.9927 52.882 62.7487 53.5269 62.2607 53.9916C61.7843 54.4448 61.064 54.6713 60.0996 54.6713C58.1709 54.6713 57.2065 53.7999 57.2065 52.0571ZM62.7487 76.5785H57.4331V57.0938H62.7487V76.5785ZM81.9371 70.7923C81.9371 72.7908 81.2399 74.3128 79.8457 75.3585C78.4631 76.4042 76.3891 76.9271 73.6238 76.9271C72.2064 76.9271 70.998 76.8283 69.9988 76.6308C68.9996 76.4449 68.0643 76.166 67.1929 75.7942V71.4023C68.1805 71.8671 69.2901 72.2563 70.5216 72.57C71.7648 72.8837 72.857 73.0406 73.7981 73.0406C75.7268 73.0406 76.6912 72.4829 76.6912 71.3675C76.6912 70.9492 76.5634 70.6123 76.3078 70.3566C76.0522 70.0894 75.6107 69.7931 74.9832 69.4678C74.3558 69.1309 73.5193 68.7416 72.4736 68.3001C70.9748 67.6727 69.871 67.0918 69.1622 66.5573C68.4651 66.0228 67.9539 65.4129 67.6286 64.7274C67.3149 64.0302 67.158 63.1763 67.158 62.1654C67.158 60.4342 67.8261 59.0981 69.1622 58.1569C70.51 57.2042 72.4155 56.7278 74.8787 56.7278C77.2257 56.7278 79.5088 57.2391 81.7279 58.2615L80.1245 62.0957C79.1486 61.6774 78.2365 61.3347 77.3883 61.0674C76.5402 60.8002 75.6746 60.6666 74.7915 60.6666C73.223 60.6666 72.4387 61.0907 72.4387 61.9389C72.4387 62.4152 72.6885 62.8277 73.1881 63.1763C73.6994 63.5248 74.809 64.0418 76.5169 64.7274C78.039 65.3431 79.1544 65.9183 79.8631 66.4527C80.5719 66.9872 81.0947 67.603 81.4317 68.3001C81.7686 68.9972 81.9371 69.828 81.9371 70.7923ZM96.8556 61.0849H92.2545V76.5785H86.939V61.0849H84.011V58.5229L86.939 57.0938V55.6647C86.939 53.4455 87.485 51.8247 88.5772 50.8023C89.6694 49.7798 91.418 49.2686 93.8231 49.2686C95.6588 49.2686 97.2913 49.5416 98.7204 50.0877L97.361 53.9916C96.2921 53.6547 95.3045 53.4862 94.3982 53.4862C93.643 53.4862 93.0969 53.7128 92.76 54.1659C92.423 54.6074 92.2545 55.1767 92.2545 55.8739V57.0938H96.8556V61.0849ZM99.6789 52.0571C99.6789 50.3259 100.643 49.4603 102.572 49.4603C104.501 49.4603 105.465 50.3259 105.465 52.0571C105.465 52.882 105.221 53.5269 104.733 53.9916C104.257 54.4448 103.536 54.6713 102.572 54.6713C100.643 54.6713 99.6789 53.7999 99.6789 52.0571ZM105.221 76.5785H99.9055V57.0938H105.221V76.5785ZM118.867 60.5097C117.74 60.5097 116.857 60.8699 116.218 61.5903C115.579 62.299 115.213 63.3099 115.12 64.6228H122.58C122.556 63.3099 122.214 62.299 121.551 61.5903C120.889 60.8699 119.994 60.5097 118.867 60.5097ZM119.617 76.9271C116.48 76.9271 114.028 76.0615 112.262 74.3303C110.496 72.5991 109.613 70.1475 109.613 66.9756C109.613 63.7107 110.426 61.1894 112.053 59.4118C113.691 57.6225 115.951 56.7278 118.832 56.7278C121.586 56.7278 123.73 57.5121 125.263 59.0806C126.797 60.6492 127.564 62.8161 127.564 65.5813V68.1607H114.998C115.056 69.6711 115.504 70.8504 116.34 71.6986C117.177 72.5468 118.35 72.9709 119.861 72.9709C121.034 72.9709 122.144 72.8489 123.189 72.6049C124.235 72.3609 125.327 71.9717 126.466 71.4372V75.5502C125.536 76.015 124.543 76.3577 123.486 76.5785C122.428 76.8109 121.139 76.9271 119.617 76.9271ZM138.056 76.9271C135.767 76.9271 133.966 76.0382 132.653 74.2605C131.352 72.4829 130.701 70.0197 130.701 66.871C130.701 63.6759 131.363 61.1894 132.688 59.4118C134.024 57.6225 135.86 56.7278 138.195 56.7278C140.647 56.7278 142.517 57.6806 143.807 59.5861H143.981C143.714 58.1337 143.58 56.8382 143.58 55.6996V49.4603H148.913V76.5785H144.835L143.807 74.0514H143.58C142.372 75.9685 140.53 76.9271 138.056 76.9271ZM139.921 72.692C141.28 72.692 142.273 72.297 142.901 71.5069C143.54 70.7168 143.888 69.3749 143.946 67.481V66.9059C143.946 64.8145 143.621 63.3157 142.97 62.4094C142.331 61.5031 141.286 61.05 139.833 61.05C138.648 61.05 137.725 61.5554 137.062 62.5663C136.412 63.5655 136.086 65.0236 136.086 66.9407C136.086 68.8578 136.417 70.2986 137.08 71.2629C137.742 72.2156 138.689 72.692 139.921 72.692ZM177.339 70.7923C177.339 72.7908 176.642 74.3128 175.247 75.3585C173.865 76.4042 171.791 76.9271 169.025 76.9271C167.608 76.9271 166.4 76.8283 165.4 76.6308C164.401 76.4449 163.466 76.166 162.595 75.7942V71.4023C163.582 71.8671 164.692 72.2563 165.923 72.57C167.166 72.8837 168.259 73.0406 169.2 73.0406C171.128 73.0406 172.093 72.4829 172.093 71.3675C172.093 70.9492 171.965 70.6123 171.709 70.3566C171.454 70.0894 171.012 69.7931 170.385 69.4678C169.757 69.1309 168.921 68.7416 167.875 68.3001C166.376 67.6727 165.273 67.0918 164.564 66.5573C163.867 66.0228 163.356 65.4129 163.03 64.7274C162.717 64.0302 162.56 63.1763 162.56 62.1654C162.56 60.4342 163.228 59.0981 164.564 58.1569C165.912 57.2042 167.817 56.7278 170.28 56.7278C172.627 56.7278 174.91 57.2391 177.13 58.2615L175.526 62.0957C174.55 61.6774 173.638 61.3347 172.79 61.0674C171.942 60.8002 171.076 60.6666 170.193 60.6666C168.625 60.6666 167.84 61.0907 167.84 61.9389C167.84 62.4152 168.09 62.8277 168.59 63.1763C169.101 63.5248 170.211 64.0418 171.919 64.7274C173.441 65.3431 174.556 65.9183 175.265 66.4527C175.974 66.9872 176.496 67.603 176.833 68.3001C177.17 68.9972 177.339 69.828 177.339 70.7923ZM189.695 72.692C190.625 72.692 191.74 72.4887 193.041 72.082V76.0382C191.717 76.6308 190.09 76.9271 188.162 76.9271C186.035 76.9271 184.484 76.3926 183.508 75.3237C182.544 74.2431 182.062 72.6281 182.062 70.4786V61.0849H179.517V58.8366L182.445 57.059L183.979 52.9459H187.377V57.0938H192.832V61.0849H187.377V70.4786C187.377 71.2339 187.586 71.7916 188.005 72.1517C188.435 72.5119 188.998 72.692 189.695 72.692ZM210.801 76.5785L210.086 74.0863H209.807C209.238 74.9925 208.431 75.6955 207.385 76.1951C206.339 76.6831 205.148 76.9271 203.812 76.9271C201.523 76.9271 199.798 76.3171 198.636 75.0971C197.474 73.8655 196.893 72.0995 196.893 69.7989V57.0938H202.209V68.4744C202.209 69.8803 202.458 70.9376 202.958 71.6463C203.458 72.3435 204.254 72.692 205.346 72.692C206.833 72.692 207.908 72.1982 208.57 71.2106C209.232 70.2114 209.563 68.5615 209.563 66.261V57.0938H214.879V76.5785H210.801ZM226.625 76.9271C224.337 76.9271 222.536 76.0382 221.223 74.2605C219.921 72.4829 219.271 70.0197 219.271 66.871C219.271 63.6759 219.933 61.1894 221.258 59.4118C222.594 57.6225 224.43 56.7278 226.765 56.7278C229.216 56.7278 231.087 57.6806 232.377 59.5861H232.551C232.284 58.1337 232.15 56.8382 232.15 55.6996V49.4603H237.483V76.5785H233.405L232.377 74.0514H232.15C230.942 75.9685 229.1 76.9271 226.625 76.9271ZM228.49 72.692C229.85 72.692 230.843 72.297 231.471 71.5069C232.11 70.7168 232.458 69.3749 232.516 67.481V66.9059C232.516 64.8145 232.191 63.3157 231.54 62.4094C230.901 61.5031 229.856 61.05 228.403 61.05C227.218 61.05 226.294 61.5554 225.632 62.5663C224.981 63.5655 224.656 65.0236 224.656 66.9407C224.656 68.8578 224.987 70.2986 225.65 71.2629C226.312 72.2156 227.259 72.692 228.49 72.692ZM251.112 60.5097C249.985 60.5097 249.102 60.8699 248.463 61.5903C247.824 62.299 247.458 63.3099 247.365 64.6228H254.824C254.801 63.3099 254.458 62.299 253.796 61.5903C253.134 60.8699 252.239 60.5097 251.112 60.5097ZM251.861 76.9271C248.724 76.9271 246.273 76.0615 244.507 74.3303C242.741 72.5991 241.858 70.1475 241.858 66.9756C241.858 63.7107 242.671 61.1894 244.298 59.4118C245.936 57.6225 248.196 56.7278 251.077 56.7278C253.831 56.7278 255.974 57.5121 257.508 59.0806C259.042 60.6492 259.809 62.8161 259.809 65.5813V68.1607H247.243C247.301 69.6711 247.748 70.8504 248.585 71.6986C249.422 72.5468 250.595 72.9709 252.105 72.9709C253.279 72.9709 254.389 72.8489 255.434 72.6049C256.48 72.3609 257.572 71.9717 258.711 71.4372V75.5502C257.781 76.015 256.788 76.3577 255.73 76.5785C254.673 76.8109 253.384 76.9271 251.861 76.9271ZM282.117 76.5785H276.801V65.1979C276.801 63.792 276.551 62.7405 276.052 62.0434C275.552 61.3347 274.756 60.9803 273.664 60.9803C272.177 60.9803 271.102 61.4799 270.44 62.4791C269.778 63.4667 269.446 65.1108 269.446 67.4113V76.5785H264.131V57.0938H268.192L268.906 59.5861H269.202C269.795 58.6449 270.608 57.9362 271.642 57.4598C272.688 56.9718 273.873 56.7278 275.198 56.7278C277.463 56.7278 279.183 57.3436 280.356 58.5752C281.53 59.7952 282.117 61.5612 282.117 63.8734V76.5785ZM295.798 72.692C296.727 72.692 297.843 72.4887 299.144 72.082V76.0382C297.819 76.6308 296.193 76.9271 294.264 76.9271C292.138 76.9271 290.587 76.3926 289.611 75.3237C288.646 74.2431 288.164 72.6281 288.164 70.4786V61.0849H285.62V58.8366L288.548 57.059L290.081 52.9459H293.48V57.0938H298.935V61.0849H293.48V70.4786C293.48 71.2339 293.689 71.7916 294.107 72.1517C294.537 72.5119 295.101 72.692 295.798 72.692ZM316.694 70.7923C316.694 72.7908 315.997 74.3128 314.603 75.3585C313.22 76.4042 311.146 76.9271 308.381 76.9271C306.963 76.9271 305.755 76.8283 304.756 76.6308C303.757 76.4449 302.821 76.166 301.95 75.7942V71.4023C302.938 71.8671 304.047 72.2563 305.279 72.57C306.522 72.8837 307.614 73.0406 308.555 73.0406C310.484 73.0406 311.448 72.4829 311.448 71.3675C311.448 70.9492 311.32 70.6123 311.065 70.3566C310.809 70.0894 310.368 69.7931 309.74 69.4678C309.113 69.1309 308.276 68.7416 307.231 68.3001C305.732 67.6727 304.628 67.0918 303.919 66.5573C303.222 66.0228 302.711 65.4129 302.386 64.7274C302.072 64.0302 301.915 63.1763 301.915 62.1654C301.915 60.4342 302.583 59.0981 303.919 58.1569C305.267 57.2042 307.173 56.7278 309.636 56.7278C311.983 56.7278 314.266 57.2391 316.485 58.2615L314.882 62.0957C313.906 61.6774 312.994 61.3347 312.145 61.0674C311.297 60.8002 310.432 60.6666 309.549 60.6666C307.98 60.6666 307.196 61.0907 307.196 61.9389C307.196 62.4152 307.446 62.8277 307.945 63.1763C308.456 63.5248 309.566 64.0418 311.274 64.7274C312.796 65.3431 313.911 65.9183 314.62 66.4527C315.329 66.9872 315.852 67.603 316.189 68.3001C316.526 68.9972 316.694 69.828 316.694 70.7923Z" fill="#575859"/>
</svg>
